<svg preserveAspectRatio="none" overflow="visible" style="display: block;" width="16" height="16" viewBox="0 0 16 16" fill="none" xmlns="http://www.w3.org/2000/svg">
<g id="tabler:note">
<path id="Vector" d="M13.3333 8.66602V3.99935C13.3333 3.64573 13.1928 3.30659 12.9428 3.05654C12.6927 2.80649 12.3536 2.66602 12 2.66602H3.99996C3.64634 2.66602 3.3072 2.80649 3.05715 3.05654C2.8071 3.30659 2.66663 3.64573 2.66663 3.99935V11.9993C2.66663 12.353 2.8071 12.6921 3.05715 12.9422C3.3072 13.1922 3.64634 13.3327 3.99996 13.3327H8.66663L13.3333 8.66602ZM8.66663 13.3327V9.33268C8.66663 9.15587 8.73686 8.9863 8.86189 8.86128C8.98691 8.73625 9.15648 8.66602 9.33329 8.66602H13.3333" stroke="white" stroke-linecap="round" stroke-linejoin="round"/>
</g>
</svg>
