<svg preserveAspectRatio="none" overflow="visible" style="display: block;" width="16" height="16" viewBox="0 0 16 16" fill="none" xmlns="http://www.w3.org/2000/svg">
<g id="Attachment--Streamline-Ultimate">
<path id="Vector" d="M14 6.90517L8.14562 12.9172C7.47047 13.6105 6.55479 14 5.60001 14C4.64523 14 3.72955 13.6105 3.05442 12.9172C2.37928 12.224 2 11.2838 2 10.3033C2 9.32292 2.37928 8.38266 3.05442 7.68939L7.86295 2.75236C8.08434 2.51698 8.34914 2.32924 8.64199 2.20008C8.93479 2.07092 9.24972 2.00294 9.56838 2.00009C9.88705 1.99725 10.203 2.0596 10.498 2.18352C10.793 2.30743 11.0609 2.49042 11.2863 2.72181C11.5116 2.9532 11.6898 3.22836 11.8105 3.53123C11.9312 3.83409 11.9919 4.15861 11.9891 4.48583C11.9864 4.81306 11.9202 5.13644 11.7944 5.4371C11.6686 5.73777 11.4858 6.00971 11.2565 6.23704L6.44854 11.1768C6.22226 11.4014 5.91915 11.5256 5.60452 11.5228C5.28988 11.5201 4.98889 11.3905 4.76636 11.1621C4.54384 10.9337 4.41759 10.6246 4.4148 10.3016C4.41202 9.97845 4.53293 9.66722 4.75148 9.43475L9.56001 4.49552" stroke="white" stroke-linecap="round" stroke-linejoin="round"/>
</g>
</svg>
